<?xml version="1.0" standalone="no"?>
<!DOCTYPE svg PUBLIC "-//W3C//DTD SVG 20010904//EN"
 "http://www.w3.org/TR/2001/REC-SVG-20010904/DTD/svg10.dtd">
<svg version="1.0" xmlns="http://www.w3.org/2000/svg"
 width="900.000000pt" height="520.000000pt" viewBox="0 0 900.000000 520.000000"
 preserveAspectRatio="xMidYMid meet">

<g transform="translate(0.000000,520.000000) scale(0.100000,-0.100000)"
fill="#000000" stroke="none">
<path d="M4305 5194 c-378 -38 -670 -122 -982 -284 -607 -314 -1070 -869
-1272 -1525 -78 -255 -105 -447 -105 -745 0 -242 11 -355 54 -550 143 -643
534 -1212 1088 -1583 132 -88 388 -218 537 -273 129 -47 368 -107 520 -130
168 -25 542 -25 710 0 152 23 391 83 520 130 150 55 405 185 535 272 506 338
876 838 1044 1412 77 258 101 433 100 727 0 293 -28 488 -105 740 -250 811
-895 1456 -1704 1703 -238 73 -426 102 -695 107 -113 1 -223 1 -245 -1z m317
-702 c54 -33 88 -72 114 -127 l24 -50 0 -481 c0 -405 -2 -487 -15 -525 -64
-188 -309 -240 -443 -95 -74 80 -73 70 -70 626 3 466 4 497 22 534 26 51 79
104 130 128 58 27 187 21 238 -10z m-937 -479 c68 -23 135 -92 158 -162 21
-66 21 -102 1 -171 -14 -47 -30 -68 -127 -165 -61 -60 -130 -137 -154 -169
-257 -348 -299 -812 -109 -1201 198 -405 597 -655 1046 -655 449 0 848 250
1046 655 197 404 144 885 -136 1235 -29 36 -82 95 -119 131 -90 88 -106 123
-106 224 0 69 4 86 27 127 49 83 142 138 233 138 78 0 134 -28 222 -113 143
-138 230 -250 322 -415 196 -353 257 -763 175 -1172 -8 -41 -33 -129 -55 -195
-203 -600 -727 -1037 -1364 -1136 -44 -7 -154 -12 -245 -12 -91 0 -201 5 -245
12 -562 88 -1027 428 -1284 939 -47 94 -114 288 -135 392 -101 506 11 996 321
1398 72 92 219 242 275 279 80 54 166 66 253 36z"/>
</g>
</svg>
